<?xml version="1.0" standalone="no"?>
<!DOCTYPE svg PUBLIC "-//W3C//DTD SVG 20010904//EN"
 "http://www.w3.org/TR/2001/REC-SVG-20010904/DTD/svg10.dtd">
<svg version="1.0" xmlns="http://www.w3.org/2000/svg"
 width="500.000000pt" height="500.000000pt" viewBox="0 0 500.000000 500.000000"
 preserveAspectRatio="xMidYMid meet">
<metadata>
Created by potrace 1.14, written by Peter Selinger 2001-2017
</metadata>
<g transform="translate(0.000000,500.000000) scale(0.100000,-0.100000)"
fill="#000000" stroke="none">
<path d="M1019 4602 c-12 -2 -14 -86 -12 -575 0 -314 2 -582 2 -594 l1 -23
220 0 c203 0 220 1 221 18 0 9 1 171 1 359 1 320 2 342 18 333 10 -5 19 -7 22
-5 9 9 78 12 78 2 0 -6 4 -6 13 0 6 6 21 8 32 6 11 -2 26 -4 33 -3 13 1 45 1
65 0 6 0 31 1 55 3 24 2 45 0 47 -4 3 -3 17 -4 32 -2 26 4 66 5 103 3 8 -1 27
1 43 3 15 2 27 0 27 -6 0 -6 5 -6 13 -1 6 5 26 8 42 7 44 -5 47 -4 78 0 15 2
27 0 27 -5 0 -5 5 -6 11 -2 18 11 100 10 107 -1 6 -10 10 -3144 4 -3200 l-4
-30 -311 1 c-172 0 -317 -3 -322 -7 -7 -5 -10 -90 -9 -236 1 -125 2 -230 3
-233 1 -7 1741 -7 1742 0 5 30 3 162 -3 166 -4 3 -4 13 0 22 11 22 9 268 -2
279 -4 4 -150 8 -324 8 l-317 1 -1 1609 c0 886 1 1615 3 1621 4 11 43 11 62 0
5 -4 12 -3 15 2 3 5 20 7 38 5 43 -5 48 -5 81 0 15 2 27 0 27 -6 0 -6 5 -6 13
-1 6 5 26 8 42 7 44 -5 47 -4 78 0 15 2 27 0 27 -5 0 -5 5 -6 12 -2 7 5 28 7
48 6 19 -1 41 -2 48 -2 13 1 43 1 67 0 8 0 22 0 30 0 8 0 21 0 28 0 6 0 35 1
62 3 28 1 56 -1 63 -6 7 -6 12 -6 12 0 0 11 50 11 67 0 6 -4 14 -1 16 5 9 21
9 32 8 -592 -1 -36 0 -76 2 -90 l2 -25 220 0 220 0 0 95 c0 52 5 98 10 102 7
5 7 8 0 8 -6 0 -10 44 -10 112 0 64 4 116 10 120 7 5 7 8 0 8 -6 0 -9 44 -8
117 5 286 5 615 -1 621 -6 5 -2996 10 -3027 4z m1616 -1089 c-2 -10 -4 -20 -4
-23 -1 -3 -5 2 -11 10 -6 9 -5 17 3 22 16 10 16 10 12 -9z m-120 -113 c-3 -5
-10 -10 -16 -10 -5 0 -9 5 -9 10 0 6 7 10 16 10 8 0 12 -4 9 -10z m-35 -10 c0
-5 -5 -10 -11 -10 -5 0 -7 5 -4 10 3 6 8 10 11 10 2 0 4 -4 4 -10z m-50 -31
c0 -5 -4 -8 -9 -4 -5 3 -17 -2 -25 -11 -13 -12 -16 -13 -16 -1 0 7 3 17 7 20
10 11 43 8 43 -4z m107 -2835 c-3 -3 -12 -4 -19 -1 -8 3 -5 6 6 6 11 1 17 -2
13 -5z"/>
</g>
</svg>
